<svg xmlns="http://www.w3.org/2000/svg" width="819.383" height="41" viewBox="0 0 819.383 41">
  <path id="Soustraction_2" data-name="Soustraction 2" d="M999.191,41H179.809c13.494-3.554,28.206-6.959,43.728-10.12,23.412-4.77,49.183-9.1,76.6-12.874,27.667-3.807,57.246-7.078,87.915-9.72,31.223-2.691,63.909-4.758,97.149-6.143C519.294.721,554.388,0,589.5,0s70.206.721,104.305,2.142c33.24,1.386,65.925,3.452,97.149,6.143,30.664,2.642,60.243,5.912,87.915,9.72,27.4,3.771,53.171,8.1,76.6,12.874C970.993,34.043,985.7,37.447,999.186,41Z" transform="translate(-179.809)" fill="#fff"/>
</svg>
