<svg xmlns="http://www.w3.org/2000/svg" width="182" height="49" viewBox="0 0 182 49">
    <g fill="none" fill-rule="evenodd">
        <path fill="#000" d="M0 24.391C0 10.921 10.916 0 24.381 0h132.546c13.465 0 24.381 10.917 24.381 24.391 0 13.471-10.916 24.392-24.381 24.392H24.38C10.916 48.783 0 37.865 0 24.39z"/>
        <path fill="#FFF" fill-rule="nonzero" d="M64.908 15V7.18h2.207c.68 0 1.282.15 1.805.45.523.302.926.73 1.211 1.285.285.555.429 1.192.432 1.912v.5c0 .737-.142 1.383-.427 1.938a3.004 3.004 0 0 1-1.219 1.278c-.528.298-1.143.45-1.845.457h-2.164zm1.031-6.972v6.129h1.085c.795 0 1.413-.247 1.856-.741.442-.495.663-1.198.663-2.111v-.457c0-.888-.209-1.578-.626-2.07-.417-.493-1.009-.743-1.775-.75H65.94zm5.963 4.013c0-.57.112-1.082.336-1.537.224-.454.535-.805.934-1.052.4-.247.855-.37 1.367-.37.792 0 1.432.273 1.92.82.49.549.734 1.277.734 2.187v.07c0 .565-.109 1.073-.325 1.522-.217.45-.527.8-.93 1.05-.402.251-.865.376-1.388.376-.788 0-1.426-.274-1.915-.821-.488-.548-.733-1.273-.733-2.176v-.07zm1 .118c0 .644.149 1.162.448 1.552.299.39.699.585 1.2.585.505 0 .906-.197 1.203-.593.297-.396.446-.95.446-1.662 0-.638-.151-1.154-.454-1.55a1.443 1.443 0 0 0-1.206-.594c-.49 0-.886.196-1.187.586-.3.39-.45.949-.45 1.676zm10.882 1.471l1.117-4.442h.994L84.203 15h-.805l-1.413-4.404L80.61 15h-.806l-1.686-5.812h.988l1.144 4.351 1.354-4.35h.8l1.38 4.441zm4.26-4.442l.033.73c.444-.558 1.024-.837 1.74-.837 1.228 0 1.848.693 1.859 2.079V15h-.994v-3.846c-.004-.419-.1-.728-.287-.929-.188-.2-.481-.3-.878-.3-.323 0-.606.085-.85.257a1.75 1.75 0 0 0-.568.677V15h-.994V9.188h.94zM94.455 15h-.994V6.75h.994V15zm1.526-2.96c0-.569.112-1.08.336-1.536.224-.454.535-.805.935-1.052.399-.247.855-.37 1.367-.37.791 0 1.431.273 1.92.82.489.549.733 1.277.733 2.187v.07c0 .565-.108 1.073-.325 1.522-.217.45-.526.8-.93 1.05-.402.251-.865.376-1.388.376-.787 0-1.426-.274-1.914-.821-.49-.548-.734-1.273-.734-2.176v-.07zm1 .119c0 .644.149 1.162.448 1.552.299.39.7.585 1.2.585.505 0 .906-.197 1.204-.593.297-.396.445-.95.445-1.662 0-.638-.15-1.154-.454-1.55a1.443 1.443 0 0 0-1.205-.594c-.49 0-.887.196-1.187.586-.301.39-.452.949-.452 1.676zM106.304 15c-.057-.115-.104-.319-.14-.612-.462.48-1.013.72-1.654.72-.573 0-1.043-.163-1.41-.487a1.573 1.573 0 0 1-.55-1.232c0-.605.23-1.075.69-1.41.46-.335 1.107-.502 1.941-.502h.967v-.457c0-.347-.104-.624-.311-.83-.208-.206-.514-.309-.919-.309-.354 0-.651.09-.891.269-.24.179-.36.396-.36.65h-1c0-.29.104-.57.31-.84.205-.271.485-.485.837-.643.353-.157.74-.236 1.163-.236.67 0 1.194.167 1.574.502.38.335.577.796.59 1.383v2.675c0 .534.069.958.205 1.273V15h-1.042zm-1.649-.757c.312 0 .607-.08.886-.242.28-.161.482-.37.607-.628V12.18h-.779c-1.217 0-1.826.356-1.826 1.069 0 .312.104.555.312.73.207.176.474.264.8.264zm4.003-2.197c0-.892.211-1.609.634-2.151.422-.543.975-.814 1.66-.814.68 0 1.218.233 1.616.698V6.75h.994V15h-.913l-.049-.623c-.397.487-.95.73-1.66.73-.673 0-1.221-.275-1.646-.827-.424-.551-.636-1.27-.636-2.159v-.075zm.993.113c0 .659.137 1.174.409 1.547.272.372.648.558 1.128.558.63 0 1.09-.283 1.38-.848v-2.67c-.297-.548-.754-.822-1.37-.822-.487 0-.866.188-1.138.564-.272.376-.409.933-.409 1.67zm8.312-.118c0-.57.112-1.082.336-1.537.224-.454.535-.805.934-1.052.4-.247.855-.37 1.367-.37.792 0 1.432.273 1.92.82.49.549.734 1.277.734 2.187v.07c0 .565-.109 1.073-.325 1.522-.217.45-.527.8-.93 1.05-.402.251-.865.376-1.388.376-.788 0-1.426-.274-1.915-.821-.489-.548-.733-1.273-.733-2.176v-.07zm1 .118c0 .644.149 1.162.448 1.552.299.39.699.585 1.2.585.505 0 .906-.197 1.203-.593.297-.396.446-.95.446-1.662 0-.638-.151-1.154-.454-1.55a1.443 1.443 0 0 0-1.206-.594c-.49 0-.886.196-1.187.586-.3.39-.45.949-.45 1.676zm6.677-2.97l.032.73c.444-.559 1.024-.838 1.74-.838 1.228 0 1.848.693 1.858 2.079V15h-.993v-3.846c-.004-.419-.1-.728-.288-.929-.188-.2-.48-.3-.878-.3-.322 0-.605.085-.848.257a1.75 1.75 0 0 0-.57.677V15h-.993V9.188h.94zm9.6-1.408v1.407h1.085v.769h-1.085v3.604c0 .232.049.407.145.523.097.117.262.175.494.175.115 0 .273-.022.473-.065V15a2.88 2.88 0 0 1-.763.107c-.444 0-.778-.134-1.004-.402-.226-.269-.338-.65-.338-1.144V9.957h-1.058v-.769h1.058V7.781h.993zm3.44 2.111c.44-.54 1.012-.81 1.718-.81 1.228 0 1.847.692 1.858 2.078V15h-.993v-3.846c-.004-.419-.1-.728-.288-.929-.188-.2-.48-.3-.878-.3-.322 0-.605.085-.849.257a1.75 1.75 0 0 0-.569.677V15h-.994V6.75h.994v3.142zm7.676 5.215c-.788 0-1.43-.258-1.923-.776-.494-.517-.741-1.21-.741-2.076v-.182c0-.577.11-1.091.33-1.544.22-.453.528-.808.924-1.064a2.323 2.323 0 0 1 1.286-.384c.756 0 1.343.249 1.762.747.419.497.628 1.21.628 2.137v.414h-3.937c.015.573.182 1.036.502 1.388.32.353.728.53 1.222.53.351 0 .648-.072.892-.215a2.24 2.24 0 0 0 .64-.57l.606.473c-.487.748-1.217 1.122-2.191 1.122zm-.124-5.21c-.4 0-.738.146-1.01.438-.272.292-.44.701-.505 1.227h2.912v-.075c-.03-.505-.165-.896-.409-1.173-.243-.278-.573-.417-.988-.417z"/>
        <path fill="#FFF" d="M74.64 36.957l-.222-.637-.51-1.469a772.18 772.18 0 0 0-.51-1.468l-.223-.637h-5.8l-1.465 4.21H64l5.376-14.711h1.798l5.376 14.712h-1.91zm-4.395-12.48l-.238.679c-.158.452-.352 1.01-.58 1.677-.23.666-.46 1.332-.693 1.998l-.586 1.677-.237.678h4.729l-2.335-6.708h-.06zm13.237 1.387c1.388 0 2.513.513 3.375 1.54.862 1.026 1.294 2.379 1.294 4.057 0 1.68-.428 3.032-1.284 4.058-.855 1.027-1.97 1.54-3.344 1.54-.775 0-1.462-.165-2.062-.495a3.609 3.609 0 0 1-1.415-1.391h-.04v5.454h-1.758V25.966h1.667v1.784h.04c.317-.57.795-1.028 1.435-1.371a4.356 4.356 0 0 1 2.092-.515zm-.323 9.614c.963 0 1.736-.365 2.319-1.096.583-.73.874-1.704.874-2.92 0-1.217-.291-2.19-.874-2.922-.583-.73-1.356-1.096-2.32-1.096-.936 0-1.697.37-2.283 1.112-.586.74-.879 1.71-.879 2.905 0 1.197.293 2.165.88 2.906.585.741 1.346 1.111 2.283 1.111zm12.328-9.614c1.387 0 2.512.513 3.375 1.54.862 1.026 1.293 2.379 1.293 4.057 0 1.68-.428 3.032-1.283 4.058-.856 1.027-1.97 1.54-3.345 1.54-.775 0-1.462-.165-2.061-.495a3.609 3.609 0 0 1-1.415-1.391h-.04v5.454h-1.759V25.966h1.668v1.784h.04c.317-.57.795-1.028 1.435-1.371a4.356 4.356 0 0 1 2.092-.515zm-.324 9.614c.964 0 1.737-.365 2.32-1.096.582-.73.873-1.704.873-2.92 0-1.217-.29-2.19-.874-2.922-.582-.73-1.355-1.096-2.319-1.096-.936 0-1.697.37-2.283 1.112-.586.74-.88 1.71-.88 2.905 0 1.197.294 2.165.88 2.906.586.741 1.347 1.111 2.283 1.111zm11.823-2.569h1.829c.088.795.475 1.434 1.162 1.917.687.483 1.55.724 2.587.724.983 0 1.797-.236 2.44-.709.644-.472.965-1.069.965-1.79 0-.624-.224-1.138-.672-1.539-.448-.4-1.164-.727-2.147-.978l-1.87-.49c-2.586-.666-3.88-1.96-3.88-3.884 0-1.224.48-2.223 1.44-2.998.96-.775 2.198-1.162 3.714-1.162 1.448 0 2.647.39 3.597 1.172.95.782 1.445 1.791 1.485 3.029h-1.818c-.081-.789-.418-1.41-1.01-1.866-.594-.456-1.365-.683-2.315-.683-.943 0-1.713.224-2.309.673-.596.448-.894 1.033-.894 1.753 0 .558.217 1.015.652 1.371.434.357 1.147.665 2.137.923l1.526.408c1.509.38 2.593.887 3.253 1.52.66.631.99 1.474.99 2.528 0 1.345-.49 2.41-1.47 3.196-.98.785-2.309 1.177-3.986 1.177-1.543 0-2.807-.39-3.794-1.172-.987-.782-1.524-1.822-1.612-3.12zm13.591-9.42h1.758v2.477h2.122v1.468h-2.122v6.597c0 .503.11.873.329 1.111.219.238.56.357 1.025.357.108 0 .246-.007.415-.02.168-.014.283-.024.343-.031v1.499c-.108.027-.271.049-.49.066a8.293 8.293 0 0 1-.642.025c-.983 0-1.685-.226-2.106-.678-.421-.452-.632-1.204-.632-2.258v-6.668h-1.516v-1.468h1.516v-2.477zm10.57 13.57c-1.53 0-2.749-.508-3.658-1.524-.91-1.017-1.364-2.374-1.364-4.074 0-1.706.454-3.065 1.364-4.078.91-1.013 2.128-1.519 3.658-1.519 1.529 0 2.748.506 3.658 1.52.909 1.012 1.364 2.371 1.364 4.077 0 1.7-.455 3.057-1.364 4.074-.91 1.016-2.13 1.524-3.658 1.524zm0-1.58c1.017 0 1.81-.356 2.38-1.066.569-.71.853-1.694.853-2.952 0-1.264-.284-2.25-.854-2.956-.569-.707-1.362-1.06-2.38-1.06-1.017 0-1.81.355-2.379 1.065-.57.71-.854 1.694-.854 2.951 0 1.258.286 2.242.859 2.952s1.364 1.065 2.375 1.065zm7.124 1.478V25.966h1.657v1.784h.04a2.438 2.438 0 0 1 .965-1.376c.482-.34 1.04-.51 1.673-.51a4.04 4.04 0 0 1 .727.061v1.744a1.62 1.62 0 0 0-.369-.072 5.236 5.236 0 0 0-.59-.03c-.708 0-1.276.238-1.704.713-.427.476-.641 1.102-.641 1.876v6.8h-1.758zm11.155-9.533c-.855 0-1.564.285-2.127.856-.562.571-.874 1.322-.934 2.254h5.992c-.02-.932-.298-1.683-.834-2.254-.535-.57-1.234-.856-2.097-.856zm2.89 6.393h1.738c-.148.944-.646 1.72-1.495 2.33-.849.608-1.856.912-3.022.912-1.529 0-2.743-.502-3.642-1.504-.9-1.003-1.35-2.354-1.35-4.053 0-1.706.449-3.072 1.345-4.098.896-1.027 2.085-1.54 3.567-1.54 1.455 0 2.607.483 3.455 1.448.85.965 1.274 2.28 1.274 3.946v.693h-7.821v.102c0 1.047.293 1.883.879 2.508.586.625 1.364.938 2.334.938.68 0 1.268-.151 1.763-.454.495-.302.82-.712.975-1.228z"/>
        <path fill="#FFF" fill-rule="nonzero" d="M49.225 34.837c-1.326 1.948-2.697 3.883-4.862 3.923-2.131.041-2.814-1.267-5.245-1.267-2.434 0-3.196 1.227-5.207 1.308-2.09.079-3.68-2.103-5.016-4.042-2.73-3.963-4.815-11.207-2.012-16.095 1.388-2.427 3.875-3.963 6.57-4.004 2.053-.038 3.992 1.39 5.245 1.39 1.256 0 3.61-1.714 6.084-1.463 1.035.043 3.942.42 5.809 3.163-.148.098-3.47 2.039-3.43 6.084.041 4.831 4.216 6.437 4.264 6.46-.038.113-.667 2.292-2.2 4.543zM40.135 9.28c1.145-1.348 3.081-2.352 4.68-2.419.204 1.874-.547 3.75-1.655 5.102-1.11 1.35-2.928 2.4-4.712 2.26-.243-1.833.656-3.745 1.686-4.943z"/>
    </g>
</svg>
