<svg xmlns="http://www.w3.org/2000/svg" xmlns:xlink="http://www.w3.org/1999/xlink" width="182" height="49" viewBox="0 0 182 49">
    <defs>
        <path id="a" d="M21.924 11.122L2.822.332C2.281.029 1.782-.042 1.377.088l15.646 16.071 4.901-5.036"/>
        <path id="b" d="M1.376.087C.795.274.419.877.419 1.792l.003 28.771c0 .904.365 1.5.929 1.698l15.672-16.1L1.376.087"/>
        <path id="c" d="M1.35 32.26c.408.142.917.076 1.472-.237L21.946 21.22l-4.923-5.058-15.672 16.1"/>
    </defs>
    <g fill="none" fill-rule="evenodd">
        <g>
            <text fill="#FFF" font-family="Roboto-Regular, Roboto" font-size="11" letter-spacing="1.1">
                <tspan x="59" y="14">Download o</tspan> <tspan x="127.949" y="14">n</tspan>
            </text>
            <rect width="181.308" height="48.783" fill="#000" rx="24.391"/>
            <g fill="#FFF" fill-rule="nonzero">
                <path d="M73.743 31.053v1.819h4.29c-.13 1.02-.467 1.766-.977 2.291-.628.636-1.606 1.33-3.313 1.33-2.642 0-4.707-2.158-4.707-4.833 0-2.676 2.065-4.834 4.707-4.834 1.423 0 2.466.569 3.232 1.3l1.263-1.278C77.172 25.798 75.742 25 73.743 25c-3.62 0-6.663 2.986-6.663 6.652s3.043 6.652 6.663 6.652c1.955 0 3.43-.65 4.582-1.862 1.183-1.198 1.555-2.89 1.555-4.25 0-.422-.03-.813-.095-1.139h-6.042zM85.243 29.575c-2.342 0-4.254 1.804-4.254 4.295 0 2.468 1.912 4.294 4.254 4.294 2.343 0 4.255-1.818 4.255-4.294 0-2.491-1.912-4.295-4.255-4.295zm0 6.896c-1.284 0-2.393-1.071-2.393-2.601 0-1.545 1.109-2.602 2.393-2.602 1.285 0 2.394 1.057 2.394 2.602 0 1.53-1.11 2.601-2.394 2.601zM106.099 30.536h-.066c-.416-.503-1.218-.96-2.233-.96-2.116 0-3.962 1.87-3.962 4.294 0 2.41 1.846 4.294 3.962 4.294 1.015 0 1.817-.458 2.233-.976h.066v.599c0 1.64-.868 2.52-2.262 2.52-1.139 0-1.846-.827-2.138-1.53l-1.62.68c.467 1.139 1.7 2.536 3.758 2.536 2.182 0 4.028-1.301 4.028-4.472v-7.724h-1.766v.74zm-2.138 5.935c-1.285 0-2.262-1.108-2.262-2.601 0-1.516.977-2.602 2.262-2.602 1.27 0 2.262 1.109 2.262 2.616.007 1.5-.992 2.587-2.262 2.587zM94.73 29.575c-2.343 0-4.255 1.804-4.255 4.295 0 2.468 1.912 4.294 4.255 4.294 2.342 0 4.254-1.818 4.254-4.294 0-2.491-1.912-4.295-4.254-4.295zm0 6.896c-1.285 0-2.394-1.071-2.394-2.601 0-1.545 1.11-2.602 2.394-2.602s2.393 1.057 2.393 2.602c0 1.53-1.109 2.601-2.393 2.601zM109.324 25.177h1.832v12.987h-1.832zM116.811 36.471c-.948 0-1.62-.436-2.057-1.3l5.67-2.373-.19-.488c-.35-.96-1.43-2.735-3.627-2.735-2.182 0-3.999 1.737-3.999 4.295 0 2.41 1.795 4.294 4.203 4.294 1.941 0 3.065-1.205 3.532-1.9l-1.445-.975c-.481.71-1.138 1.182-2.087 1.182zm-.131-5.284c.752 0 1.394.391 1.605.946l-3.83 1.604c0-1.804 1.262-2.55 2.225-2.55z"/>
            </g>
            <path fill="#FFF" fill-rule="nonzero" d="M67.908 17V9.18h2.207c.68 0 1.282.15 1.805.45.523.302.926.73 1.211 1.285.285.555.429 1.192.432 1.912v.5c0 .737-.142 1.383-.427 1.938a3.004 3.004 0 0 1-1.219 1.278c-.528.298-1.143.45-1.845.457h-2.164zm1.031-6.972v6.129h1.085c.795 0 1.413-.247 1.856-.741.442-.495.663-1.198.663-2.111v-.457c0-.888-.209-1.578-.626-2.07-.417-.493-1.009-.743-1.775-.75H68.94zm5.963 4.013c0-.57.112-1.082.336-1.537.224-.454.535-.805.934-1.052.4-.247.855-.37 1.367-.37.792 0 1.432.273 1.92.82.49.549.734 1.277.734 2.187v.07c0 .565-.109 1.073-.325 1.522-.217.45-.527.8-.93 1.05-.402.251-.865.376-1.388.376-.788 0-1.426-.274-1.915-.821-.488-.548-.733-1.273-.733-2.176v-.07zm1 .118c0 .644.149 1.162.448 1.552.299.39.699.585 1.2.585.505 0 .906-.197 1.203-.593.297-.396.446-.95.446-1.662 0-.638-.151-1.154-.454-1.55a1.443 1.443 0 0 0-1.206-.594c-.49 0-.886.196-1.187.586-.3.39-.45.949-.45 1.676zm10.882 1.471l1.117-4.442h.994L87.203 17h-.805l-1.413-4.404L83.61 17h-.806l-1.686-5.812h.988l1.144 4.351 1.354-4.35h.8l1.38 4.441zm4.26-4.442l.033.73c.444-.558 1.024-.837 1.74-.837 1.228 0 1.848.693 1.859 2.079V17h-.994v-3.846c-.004-.419-.1-.728-.287-.929-.188-.2-.481-.3-.878-.3-.323 0-.606.085-.85.257a1.75 1.75 0 0 0-.568.677V17h-.994v-5.812h.94zM97.455 17h-.994V8.75h.994V17zm1.526-2.96c0-.569.112-1.08.336-1.536.224-.454.535-.805.935-1.052.399-.247.855-.37 1.367-.37.791 0 1.431.273 1.92.82.489.549.733 1.277.733 2.187v.07c0 .565-.108 1.073-.325 1.522-.217.45-.526.8-.93 1.05-.402.251-.865.376-1.388.376-.787 0-1.426-.274-1.914-.821-.49-.548-.734-1.273-.734-2.176v-.07zm1 .119c0 .644.149 1.162.448 1.552.299.39.7.585 1.2.585.505 0 .906-.197 1.204-.593.297-.396.445-.95.445-1.662 0-.638-.15-1.154-.454-1.55a1.443 1.443 0 0 0-1.205-.594c-.49 0-.887.196-1.187.586-.301.39-.452.949-.452 1.676zM109.304 17c-.057-.115-.104-.319-.14-.612-.462.48-1.013.72-1.654.72-.573 0-1.043-.163-1.41-.487a1.573 1.573 0 0 1-.55-1.232c0-.605.23-1.075.69-1.41.46-.335 1.107-.502 1.941-.502h.967v-.457c0-.347-.104-.624-.311-.83-.208-.206-.514-.309-.919-.309-.354 0-.651.09-.891.269-.24.179-.36.396-.36.65h-1c0-.29.104-.57.31-.84.205-.271.485-.485.837-.643.353-.157.74-.236 1.163-.236.67 0 1.194.167 1.574.502.38.335.577.796.59 1.383v2.675c0 .534.069.958.205 1.273V17h-1.042zm-1.649-.757c.312 0 .607-.08.886-.242.28-.161.482-.37.607-.628V14.18h-.779c-1.217 0-1.826.356-1.826 1.069 0 .312.104.555.312.73.207.176.474.264.8.264zm4.003-2.197c0-.892.211-1.609.634-2.151.422-.543.975-.814 1.66-.814.68 0 1.218.233 1.616.698V8.75h.994V17h-.913l-.049-.623c-.397.487-.95.73-1.66.73-.673 0-1.221-.275-1.646-.827-.424-.551-.636-1.27-.636-2.159v-.075zm.993.113c0 .659.137 1.174.409 1.547.272.372.648.558 1.128.558.63 0 1.09-.283 1.38-.848v-2.67c-.297-.548-.754-.822-1.37-.822-.487 0-.866.188-1.138.564-.272.376-.409.933-.409 1.67zm8.312-.118c0-.57.112-1.082.336-1.537.224-.454.535-.805.934-1.052.4-.247.855-.37 1.367-.37.792 0 1.432.273 1.92.82.49.549.734 1.277.734 2.187v.07c0 .565-.109 1.073-.325 1.522-.217.45-.527.8-.93 1.05-.402.251-.865.376-1.388.376-.788 0-1.426-.274-1.915-.821-.489-.548-.733-1.273-.733-2.176v-.07zm1 .118c0 .644.149 1.162.448 1.552.299.39.699.585 1.2.585.505 0 .906-.197 1.203-.593.297-.396.446-.95.446-1.662 0-.638-.151-1.154-.454-1.55a1.443 1.443 0 0 0-1.206-.594c-.49 0-.886.196-1.187.586-.3.39-.45.949-.45 1.676zm6.677-2.97l.032.73c.444-.559 1.024-.838 1.74-.838 1.228 0 1.848.693 1.858 2.079V17h-.993v-3.846c-.004-.419-.1-.728-.288-.929-.188-.2-.48-.3-.878-.3-.322 0-.605.085-.848.257a1.75 1.75 0 0 0-.57.677V17h-.993v-5.812h.94z"/>
            <path fill="#FFF" d="M134.488 33.377c0 1.507-.33 2.702-.992 3.587-.66.884-1.546 1.326-2.656 1.326-1.31 0-2.313-.464-3.01-1.393v4.93h-1.053v-13.38h.983l.053 1.366c.69-1.03 1.69-1.545 3-1.545 1.146 0 2.044.438 2.697 1.313.652.875.978 2.09.978 3.644v.152zm-1.062-.187c0-1.233-.251-2.207-.753-2.921-.502-.715-1.201-1.072-2.098-1.072-.65 0-1.207.158-1.673.473-.467.316-.824.774-1.071 1.376v4.636c.253.554.616.976 1.088 1.268.473.292 1.03.438 1.674.438.89 0 1.586-.359 2.084-1.076.5-.718.749-1.759.749-3.122zm4.594 4.921h-1.062v-13.72h1.062v13.72zm8.924 0c-.106-.303-.174-.753-.204-1.348a3.7 3.7 0 0 1-1.42 1.13 4.32 4.32 0 0 1-1.829.397c-.92 0-1.665-.259-2.235-.777-.57-.518-.854-1.173-.854-1.965 0-.941.388-1.685 1.164-2.233.776-.548 1.857-.822 3.244-.822h1.922v-1.099c0-.69-.211-1.234-.633-1.63-.422-.396-1.038-.594-1.846-.594-.738 0-1.349.19-1.833.572-.484.38-.726.84-.726 1.375l-1.062-.009c0-.768.354-1.433 1.062-1.996.708-.563 1.579-.844 2.612-.844 1.068 0 1.91.27 2.527.808.617.54.934 1.291.952 2.256v4.573c0 .935.097 1.635.292 2.1v.106h-1.133zm-3.329-.768c.709 0 1.342-.172 1.9-.518a3.04 3.04 0 0 0 1.217-1.384v-2.126h-1.895c-1.056.012-1.883.207-2.479.585-.596.378-.894.898-.894 1.559 0 .541.2.991.598 1.348.398.358.916.536 1.553.536zm10.03-.768l2.798-8.128h1.142l-4.09 11.308-.212.5c-.526 1.173-1.337 1.76-2.435 1.76-.254 0-.525-.042-.814-.125l-.01-.885.55.054c.52 0 .94-.13 1.261-.388.322-.26.595-.705.82-1.336l.468-1.304-3.612-9.584h1.16l2.975 8.128z"/>
        </g>
        <g stroke="#F3F3F3" stroke-width="2.2" transform="translate(26.44 8.385)">
            <use xlink:href="#a"/>
            <path d="M21.95 21.22l6.52-3.684c1.322-.75 1.322-1.97 0-2.717l-6.545-3.697-4.902 5.036 4.926 5.061"/>
            <use xlink:href="#b"/>
            <use xlink:href="#c"/>
        </g>
    </g>
</svg>
