<svg xmlns="http://www.w3.org/2000/svg" xmlns:xlink="http://www.w3.org/1999/xlink" width="105" height="105" viewBox="0 0 105 105">
    <defs>
        <circle id="b" cx="48.5" cy="48.5" r="48.5"/>
        <filter id="a" width="114.4%" height="114.4%" x="-7.2%" y="-5.2%" filterUnits="objectBoundingBox">
            <feOffset dy="2" in="SourceAlpha" result="shadowOffsetOuter1"/>
            <feGaussianBlur in="shadowOffsetOuter1" result="shadowBlurOuter1" stdDeviation="2"/>
            <feColorMatrix in="shadowBlurOuter1" values="0 0 0 0 0.516236182 0 0 0 0 0.512141979 0 0 0 0 0.512141979 0 0 0 0.5 0"/>
        </filter>
    </defs>
    <g fill="none" fill-rule="evenodd">
        <g transform="translate(4 2)">
            <use fill="#000" filter="url(#a)" xlink:href="#b"/>
            <use fill="#FFF" xlink:href="#b"/>
        </g>
        <path stroke="#D9DADA" stroke-linecap="round" stroke-linejoin="round" stroke-width="2.43" d="M44.976 42.435L65.98 58.89 39.02 79.826"/>
        <path fill="#9B9B9B" d="M45.081 19.23c4.941 0 8.961 4.411 8.961 9.833l.006.286c.005.2.01.433.01.539 0 1.759-.43 3.624-1.278 5.543-.65 1.47-1.547 2.98-2.668 4.49-1.882 2.536-3.756 4.21-3.835 4.28a1.8 1.8 0 0 1-2.393-.002c-.079-.07-1.952-1.75-3.834-4.286-1.12-1.511-2.018-3.022-2.667-4.491-.848-1.917-1.277-3.78-1.277-5.534 0-.106.005-.34.01-.54l.005-.284c0-5.423 4.02-9.834 8.96-9.834z"/>
        <path fill="#FFF" d="M51.493 28.462c0 3.642-2.87 6.594-6.412 6.594-3.54 0-6.41-2.952-6.41-6.594 0-3.642 2.87-6.594 6.41-6.594 3.542 0 6.412 2.952 6.412 6.594"/>
        <path fill="#6F6E6E" d="M67.302 31.454c5.942 0 10.777 5.12 10.777 11.414 0 .048.002.18.006.331.006.232.012.503.012.626 0 2.042-.517 4.206-1.536 6.434-.781 1.706-1.861 3.46-3.209 5.213-2.264 2.942-4.518 4.886-4.612 4.967a2.21 2.21 0 0 1-1.438.526 2.203 2.203 0 0 1-1.44-.528c-.095-.082-2.348-2.031-4.61-4.975-1.348-1.755-2.428-3.508-3.208-5.213-1.02-2.226-1.536-4.387-1.536-6.424 0-.123.006-.394.011-.626l.007-.33c0-6.295 4.834-11.415 10.776-11.415z"/>
        <path fill="#FFF" d="M75.013 42.17c0 4.228-3.452 7.654-7.711 7.654-4.258 0-7.71-3.426-7.71-7.654 0-4.227 3.452-7.654 7.71-7.654 4.259 0 7.71 3.427 7.71 7.654"/>
        <g stroke="#979797" stroke-width=".81">
            <g stroke="none" stroke-width="1">
                <path fill="#FFC244" d="M39.452 46.447c7.056 0 12.798 6.074 12.798 13.542 0 .057.003.215.008.393.007.275.014.596.014.742 0 2.423-.614 4.991-1.825 7.634-.927 2.025-2.21 4.106-3.81 6.186-2.689 3.49-5.365 5.797-5.477 5.893a2.626 2.626 0 0 1-1.708.624c-.632 0-1.24-.222-1.71-.627-.113-.097-2.788-2.409-5.475-5.902-1.6-2.082-2.883-4.162-3.81-6.186-1.21-2.64-1.824-5.205-1.824-7.622 0-.146.008-.467.014-.743l.009-.392c0-7.468 5.74-13.542 12.796-13.542z"/>
                <path fill="#FFF" d="M48.609 59.16c0 5.017-4.1 9.083-9.157 9.083s-9.156-4.066-9.156-9.082c0-5.016 4.1-9.082 9.156-9.082 5.058 0 9.157 4.066 9.157 9.082"/>
            </g>
        </g>
    </g>
</svg>
