<svg xmlns="http://www.w3.org/2000/svg" width="340" height="47" viewBox="0 0 340 47">
    <g fill="none" fill-rule="evenodd">
        <path fill="#FFF" d="M0 30.725v-.091c0-8.859 6.849-16.366 16.479-16.366 4.792 0 7.988 1.13 10.908 3.212a2.809 2.809 0 0 1 1.141 2.258c0 1.494-1.231 2.759-2.783 2.759-.73 0-1.278-.315-1.734-.635-2.054-1.49-4.291-2.484-7.76-2.484-5.888 0-10.36 5.109-10.36 11.167v.089c0 6.511 4.334 11.302 10.86 11.302 3.014 0 5.754-.949 7.716-2.396v-5.922h-6.301c-1.37 0-2.508-1.039-2.508-2.397 0-1.355 1.139-2.441 2.508-2.441h8.903c1.597 0 2.83 1.222 2.83 2.805v8.455c0 1.581-.64 2.712-1.964 3.525C25.195 45.374 21.364 47 16.571 47 6.571 47 0 39.948 0 30.725M34.17 16.152c0-1.5 1.287-2.723 2.964-2.723 1.682 0 3.017 1.223 3.017 2.723v28.125c0 1.544-1.335 2.723-3.017 2.723-1.628 0-2.963-1.179-2.963-2.723V16.152zM64.542 34.94v-.089c0-4.107-3.05-7.507-7.372-7.507-4.417 0-7.24 3.356-7.24 7.42v.087c0 4.064 3.05 7.466 7.33 7.466 4.46 0 7.282-3.357 7.282-7.376m-20.12 0v-.09c0-6.669 5.46-12.19 12.838-12.19 7.374 0 12.79 5.432 12.79 12.103v.087C70.05 41.48 64.59 47 57.17 47c-7.332 0-12.748-5.432-12.748-12.06M83.426 47h-.27c-1.494 0-2.488-.942-3.122-2.372l-7.958-18.03c-.138-.403-.317-.85-.317-1.342 0-1.342 1.22-2.595 2.71-2.595 1.493 0 2.264.849 2.715 1.97l6.152 15.654 6.241-15.745c.407-.94 1.131-1.88 2.579-1.88 1.49 0 2.668 1.12 2.668 2.596 0 .493-.18 1.03-.317 1.297l-7.96 18.075C85.915 46.014 84.918 47 83.426 47M116.653 34.94v-.089c0-4.107-3.05-7.507-7.375-7.507-4.415 0-7.237 3.356-7.237 7.42v.087c0 4.064 3.05 7.466 7.33 7.466 4.46 0 7.282-3.357 7.282-7.376m-20.12 0v-.09c0-6.669 5.463-12.19 12.837-12.19 7.375 0 12.79 5.432 12.79 12.103v.087C122.16 41.48 116.7 47 109.279 47c-7.327 0-12.745-5.432-12.745-12.06"/>
        <g fill="#FFC244">
            <path d="M333.22 14.155l-.307.419-4.249 5.813-4.242-5.805-.312-.421a5.3 5.3 0 0 1-1.064-3.177c0-3.006 2.519-5.448 5.618-5.448 3.095 0 5.618 2.442 5.618 5.448a5.285 5.285 0 0 1-1.062 3.17M328.664.247c-6.107 0-11.07 4.82-11.07 10.738 0 2.256.723 4.42 2.087 6.26l.294.398 5.765 7.89s.702 1.114 2.235 1.114h1.376c1.538 0 2.235-1.115 2.235-1.115l5.767-7.89.292-.397a10.434 10.434 0 0 0 2.088-6.26c0-5.919-4.966-10.738-11.069-10.738M326.127 31.468v-.02c0-1.568 1.244-2.864 2.93-2.864 1.683 0 2.92 1.276 2.92 2.842v.021c0 1.557-1.247 2.853-2.94 2.853-1.672 0-2.91-1.276-2.91-2.832"/>
        </g>
        <path fill="#FFF" d="M140.538 43.935c4.487 0 7.281-2.028 7.281-5.396v-.085c0-3.281-2.71-5.18-7.873-5.18h-9.358v10.66h9.95zm-1.186-13.684c4.022 0 6.817-1.854 6.817-5.394v-.086c0-2.979-2.33-4.92-6.564-4.92h-9.017v10.4h8.764zm-12.066-11.738c0-.95.762-1.727 1.651-1.727h10.965c3.387 0 6.055.993 7.747 2.675 1.23 1.296 1.906 2.892 1.906 4.835v.085c0 3.929-2.37 5.957-4.698 6.994 3.513 1.078 6.349 3.15 6.349 7.293v.087c0 5.18-4.275 8.245-10.753 8.245h-11.516c-.889 0-1.65-.777-1.65-1.727v-26.76zM178.543 45.015c0 .925-.667 1.719-1.584 1.719-.875 0-1.584-.748-1.584-1.719v-2.47c-1.457 2.47-3.666 4.455-7.376 4.455-5.207 0-8.25-3.704-8.25-9.127V25.219c0-.969.666-1.719 1.584-1.719.874 0 1.624.75 1.624 1.719v11.817c0 4.232 2.169 6.876 5.96 6.876 3.666 0 6.458-2.865 6.458-7.142V25.22c0-.969.668-1.719 1.584-1.719.875 0 1.584.75 1.584 1.719v19.796zM186.835 44.15a1.533 1.533 0 0 1-.604-1.227c0-.789.648-1.447 1.465-1.447.302 0 .601.088.817.262 2.281 1.58 4.647 2.413 7.058 2.413 2.667 0 4.605-1.402 4.605-3.595v-.088c0-2.28-2.626-3.157-5.55-3.99-3.488-1.008-7.36-2.235-7.36-6.4v-.089c0-3.902 3.184-6.489 7.572-6.489 2.368 0 4.95.746 7.102 1.93.431.263.817.745.817 1.403 0 .789-.646 1.447-1.462 1.447-.302 0-.56-.088-.733-.176-1.893-1.095-3.915-1.753-5.808-1.753-2.626 0-4.304 1.402-4.304 3.288v.088c0 2.148 2.755 2.98 5.724 3.9 3.443 1.054 7.143 2.413 7.143 6.49v.088c0 4.296-3.485 6.795-7.92 6.795-2.925 0-6.152-1.097-8.562-2.85M210.48 26.097c0-.899.798-1.67 1.783-1.67 1.031 0 1.83.727 1.83 1.67V45.33c0 .941-.75 1.67-1.784 1.67-1.03 0-1.83-.729-1.83-1.67V26.097zm-.33-8.394c0-1.072.94-1.757 2.113-1.757 1.22 0 2.16.685 2.16 1.757v.556c0 1.028-.94 1.757-2.16 1.757-1.173 0-2.112-.73-2.112-1.757v-.556zM222.965 25.485c0-.925.74-1.719 1.652-1.719.955 0 1.695.748 1.695 1.719v2.47c1.477-2.47 3.825-4.455 7.694-4.455 5.433 0 8.607 3.704 8.607 9.127v12.654c0 .969-.74 1.719-1.652 1.719-.955 0-1.695-.75-1.695-1.719V33.464c0-4.232-2.26-6.876-6.217-6.876-3.867 0-6.737 2.865-6.737 7.142V45.28c0 .969-.695 1.719-1.652 1.719-.955 0-1.695-.75-1.695-1.719V25.485zM267.434 33.988c-.35-4.092-2.713-7.66-7.22-7.66-3.939 0-6.916 3.265-7.354 7.66h14.574zM260.737 47c-6.214 0-11.29-4.744-11.29-11.706v-.088c0-6.484 4.596-11.706 10.852-11.706 6.697 0 10.505 5.44 10.505 11.401 0 .914-.745 1.567-1.575 1.567H252.86c.483 4.874 3.94 7.615 7.965 7.615 2.801 0 4.86-1.087 6.521-2.61.264-.218.569-.391.964-.391.83 0 1.487.65 1.487 1.434 0 .393-.176.783-.523 1.088C267.127 45.65 264.59 47 260.737 47zM277.388 44.15a1.533 1.533 0 0 1-.604-1.227c0-.789.648-1.447 1.465-1.447.3 0 .601.088.816.262 2.282 1.58 4.648 2.413 7.058 2.413 2.668 0 4.606-1.402 4.606-3.595v-.088c0-2.28-2.626-3.157-5.551-3.99-3.487-1.008-7.36-2.235-7.36-6.4v-.089c0-3.902 3.185-6.489 7.573-6.489 2.368 0 4.95.746 7.102 1.93.43.263.817.745.817 1.403 0 .789-.646 1.447-1.463 1.447-.301 0-.559-.088-.732-.176-1.893-1.095-3.915-1.753-5.808-1.753-2.626 0-4.304 1.402-4.304 3.288v.088c0 2.148 2.754 2.98 5.724 3.9 3.442 1.054 7.142 2.413 7.142 6.49v.088c0 4.296-3.484 6.795-7.919 6.795-2.925 0-6.152-1.097-8.562-2.85M299.599 44.15a1.533 1.533 0 0 1-.604-1.227c0-.789.648-1.447 1.465-1.447.3 0 .601.088.817.262 2.281 1.58 4.647 2.413 7.057 2.413 2.668 0 4.606-1.402 4.606-3.595v-.088c0-2.28-2.626-3.157-5.551-3.99-3.487-1.008-7.36-2.235-7.36-6.4v-.089c0-3.902 3.185-6.489 7.573-6.489 2.368 0 4.95.746 7.102 1.93.43.263.817.745.817 1.403 0 .789-.646 1.447-1.463 1.447-.301 0-.559-.088-.732-.176-1.893-1.095-3.915-1.753-5.808-1.753-2.626 0-4.304 1.402-4.304 3.288v.088c0 2.148 2.754 2.98 5.724 3.9 3.442 1.054 7.142 2.413 7.142 6.49v.088c0 4.296-3.484 6.795-7.919 6.795-2.925 0-6.152-1.097-8.562-2.85"/>
    </g>
</svg>
