<svg xmlns="http://www.w3.org/2000/svg" width="59.282" height="63.096" viewBox="0 0 59.282 63.096">
  <g id="moto_dude_yay_5_" data-name="moto_dude_yay (5)" transform="translate(-0.579 -19.057)">
    <path id="Tracé_1" data-name="Tracé 1" d="M25.978,73.33a6.623,6.623,0,1,1-6.252-6.975,6.623,6.623,0,0,1,6.252,6.975" fill="#727272" fill-rule="evenodd"/>
    <path id="Tracé_2" data-name="Tracé 2" d="M25.978,73.33a6.623,6.623,0,1,1-6.252-6.975,6.623,6.623,0,0,1,6.252,6.975Z" fill="none" stroke="#565655" stroke-linecap="round" stroke-linejoin="round" stroke-width="1.5" fill-rule="evenodd"/>
    <path id="Tracé_3" data-name="Tracé 3" d="M43.565,44.755a2.392,2.392,0,1,1-2.257-2.52,2.391,2.391,0,0,1,2.257,2.52" fill="#f7be5d" fill-rule="evenodd"/>
    <path id="Tracé_4" data-name="Tracé 4" d="M43.565,44.755a2.392,2.392,0,1,1-2.257-2.52,2.391,2.391,0,0,1,2.257,2.52Z" fill="none" stroke="#575756" stroke-linecap="round" stroke-linejoin="round" stroke-width="1.5" fill-rule="evenodd"/>
    <path id="Tracé_5" data-name="Tracé 5" d="M26.748,31.935c-.025.23-.043.464-.056.7A13.533,13.533,0,0,0,39.468,46.884l.3-5.578a7.947,7.947,0,0,1-7.5-8.369c.013-.236.04-.467.073-.7" fill="#b7b7b7" fill-rule="evenodd"/>
    <path id="Tracé_6" data-name="Tracé 6" d="M26.748,31.935c-.025.23-.043.464-.056.7A13.533,13.533,0,0,0,39.468,46.884l.3-5.578a7.947,7.947,0,0,1-7.5-8.369c.013-.236.04-.467.073-.7" fill="none" stroke="#575756" stroke-linecap="round" stroke-linejoin="round" stroke-width="1.5" fill-rule="evenodd"/>
    <path id="Tracé_7" data-name="Tracé 7" d="M29.318,48.557A24.754,24.754,0,0,1,32.809,36.7c-1.516-3.146-3.714-5.2-6.315-5.343-5.352-.292-10.107,7.079-10.62,16.464" fill="#b7b7b7" fill-rule="evenodd"/>
    <path id="Tracé_8" data-name="Tracé 8" d="M29.318,48.557A24.754,24.754,0,0,1,32.809,36.7c-1.516-3.146-3.714-5.2-6.315-5.343-5.352-.292-10.107,7.079-10.62,16.464" fill="none" stroke="#575756" stroke-linecap="round" stroke-linejoin="round" stroke-width="1.5" fill-rule="evenodd"/>
    <path id="Tracé_9" data-name="Tracé 9" d="M41.282,49.33a1.566,1.566,0,0,1-1.447-1.64,1.559,1.559,0,0,1,1.641-1.472l4.48.245a1.57,1.57,0,0,1,1.47,1.641,1.559,1.559,0,0,1-1.641,1.472l-4.5-.247" fill="#e85666" fill-rule="evenodd"/>
    <path id="Tracé_10" data-name="Tracé 10" d="M46.006,46.07l-.03,0L41.5,45.824a1.954,1.954,0,0,0-2.057,1.844,1.962,1.962,0,0,0,1.814,2.055l.03,0,4.478.245a1.954,1.954,0,0,0,.243-3.9m-.055.788a1.164,1.164,0,1,1-.145,2.323l-4.478-.244-.018,0a1.164,1.164,0,0,1,.145-2.323l4.478.245h.018" fill="#575756" fill-rule="evenodd"/>
    <path id="Tracé_11" data-name="Tracé 11" d="M11.21,68.34a.4.4,0,0,1-.128-.03L9,67.42a.395.395,0,0,1-.2-.54l1.83-3.647a.4.4,0,0,1,.495-.19l2.222.862a.4.4,0,0,1,.2.555l-1.969,3.674a.4.4,0,0,1-.376.207" fill="#ffd731" fill-rule="evenodd"/>
    <path id="Tracé_12" data-name="Tracé 12" d="M11.039,62.622a.79.79,0,0,0-.76.434L8.449,66.7a.787.787,0,0,0,.4,1.08l2.082.891a.79.79,0,0,0,1.007-.353L13.9,64.647a.79.79,0,0,0-.41-1.11l-2.222-.863a.79.79,0,0,0-.231-.052m-.055.788,2.222.863-1.969,3.674-2.082-.89,1.829-3.647" fill="#565655" fill-rule="evenodd"/>
    <path id="Tracé_13" data-name="Tracé 13" d="M53.96,48.717a2.719,2.719,0,1,1-2.567-2.863,2.719,2.719,0,0,1,2.567,2.863" fill="#fdde66" fill-rule="evenodd"/>
    <path id="Tracé_14" data-name="Tracé 14" d="M53.96,48.717a2.719,2.719,0,1,1-2.567-2.863A2.719,2.719,0,0,1,53.96,48.717Z" fill="none" stroke="#585a5b" stroke-linecap="round" stroke-linejoin="round" stroke-width="1.5" fill-rule="evenodd"/>
    <path id="Tracé_15" data-name="Tracé 15" d="M15.244,60.391l14.018.765-.488,8.927-18.1-.988Z" fill="#e85666" fill-rule="evenodd"/>
    <path id="Tracé_16" data-name="Tracé 16" d="M15.244,60.391l14.018.765-.488,8.927-18.1-.988Z" fill="none" stroke="#575756" stroke-linecap="round" stroke-linejoin="round" stroke-width="1.5" fill-rule="evenodd"/>
    <path id="Tracé_17" data-name="Tracé 17" d="M52.332,64.185,50.063,51.363l-4.746-2.209.3,14.08-8.18,4.612-11.358-.62a2.994,2.994,0,1,0-.327,5.98l13.212.722a2.994,2.994,0,0,0,2.594-4.739l5.984-4.566,4.788-.438Z" fill="#e85666" fill-rule="evenodd"/>
    <path id="Tracé_18" data-name="Tracé 18" d="M52.332,64.185,50.063,51.363l-4.746-2.209.3,14.08-8.18,4.612-11.358-.62a2.994,2.994,0,1,0-.327,5.98l13.212.722a2.994,2.994,0,0,0,2.594-4.739l5.984-4.566,4.788-.438Z" fill="none" stroke="#575756" stroke-linecap="round" stroke-linejoin="round" stroke-width="1.5" fill-rule="evenodd"/>
    <path id="Tracé_19" data-name="Tracé 19" d="M59.1,75.138a6.624,6.624,0,1,1-6.252-6.978A6.623,6.623,0,0,1,59.1,75.138" fill="#727272" fill-rule="evenodd"/>
    <path id="Tracé_20" data-name="Tracé 20" d="M59.1,75.138a6.624,6.624,0,1,1-6.252-6.978A6.623,6.623,0,0,1,59.1,75.138Z" fill="none" stroke="#565655" stroke-linecap="round" stroke-linejoin="round" stroke-width="1.5" fill-rule="evenodd"/>
    <path id="Tracé_21" data-name="Tracé 21" d="M55.5,74.941a3.018,3.018,0,1,1-2.848-3.178A3.017,3.017,0,0,1,55.5,74.941" fill="#fff" fill-rule="evenodd"/>
    <path id="Tracé_22" data-name="Tracé 22" d="M55.5,74.941a3.018,3.018,0,1,1-2.848-3.178A3.017,3.017,0,0,1,55.5,74.941Z" fill="none" stroke="#585a5b" stroke-linecap="round" stroke-linejoin="round" stroke-width="1.5" fill-rule="evenodd"/>
    <path id="Tracé_23" data-name="Tracé 23" d="M22.378,73.133a3.017,3.017,0,1,1-2.849-3.177,3.017,3.017,0,0,1,2.849,3.177" fill="#fff" fill-rule="evenodd"/>
    <path id="Tracé_24" data-name="Tracé 24" d="M22.378,73.133a3.017,3.017,0,1,1-2.849-3.177,3.017,3.017,0,0,1,2.849,3.177Z" fill="none" stroke="#585a5b" stroke-linecap="round" stroke-linejoin="round" stroke-width="1.5" fill-rule="evenodd"/>
    <path id="Tracé_25" data-name="Tracé 25" d="M49.032,63.262a7.65,7.65,0,0,0-4.962,9.616l14.578-4.655a7.652,7.652,0,0,0-9.616-4.96" fill="#e85666" fill-rule="evenodd"/>
    <path id="Tracé_26" data-name="Tracé 26" d="M49.032,63.262a7.65,7.65,0,0,0-4.962,9.616l14.578-4.655a7.652,7.652,0,0,0-9.616-4.96Z" fill="none" stroke="#575756" stroke-linecap="round" stroke-linejoin="round" stroke-width="1.5" fill-rule="evenodd"/>
    <path id="Tracé_27" data-name="Tracé 27" d="M20.144,63.07A9.847,9.847,0,0,0,9.9,72.51l19.68.8a9.849,9.849,0,0,0-9.44-10.24" fill="#e85666" fill-rule="evenodd"/>
    <path id="Tracé_28" data-name="Tracé 28" d="M20.144,63.07A9.847,9.847,0,0,0,9.9,72.51l19.68.8a9.849,9.849,0,0,0-9.44-10.24Z" fill="none" stroke="#575756" stroke-linecap="round" stroke-linejoin="round" stroke-width="1.5" fill-rule="evenodd"/>
    <path id="Tracé_29" data-name="Tracé 29" d="M15.576,69.954l5.684.31" fill="none" stroke="#585a5b" stroke-linecap="round" stroke-linejoin="round" stroke-width="1.5" fill-rule="evenodd"/>
    <path id="Tracé_30" data-name="Tracé 30" d="M33.848,59.268a2.729,2.729,0,0,1-2.874,2.576l-15.15-.827a2.729,2.729,0,1,1,.3-5.449l15.152.827a2.728,2.728,0,0,1,2.576,2.873" fill="#f2919f" fill-rule="evenodd"/>
    <path id="Tracé_31" data-name="Tracé 31" d="M33.848,59.268a2.729,2.729,0,0,1-2.874,2.576l-15.15-.827a2.729,2.729,0,1,1,.3-5.449l15.152.827a2.728,2.728,0,0,1,2.576,2.873Z" fill="none" stroke="#575756" stroke-linecap="round" stroke-linejoin="round" stroke-width="1.5" fill-rule="evenodd"/>
    <path id="Tracé_32" data-name="Tracé 32" d="M51.049,52.158l-6.344-1.516.264-4.846,6.471-.816Z" fill="#e85666" fill-rule="evenodd"/>
    <path id="Tracé_33" data-name="Tracé 33" d="M51.049,52.158l-6.344-1.516.264-4.846,6.471-.816Z" fill="none" stroke="#575756" stroke-linecap="round" stroke-linejoin="round" stroke-width="1.5" fill-rule="evenodd"/>
    <path id="Tracé_34" data-name="Tracé 34" d="M37.018,55c.558-3.4-3.217-3.7-3.565-3.655l-4.036-.22a7.094,7.094,0,0,0-.225-2.2L15.935,47.64a7.1,7.1,0,0,0,6,10.19c.353.02,1.54.084,1.8.1l6.03.328-1.006,6.829,6.279,1.382L37.018,55" fill="#7dafd3" fill-rule="evenodd"/>
    <path id="Tracé_35" data-name="Tracé 35" d="M37.018,55c.558-3.4-3.217-3.7-3.565-3.655l-4.036-.22a7.094,7.094,0,0,0-.225-2.2L15.935,47.64a7.1,7.1,0,0,0,6,10.19c.353.02,1.54.084,1.8.1l6.03.328-1.006,6.829,6.279,1.382L37.018,55" fill="none" stroke="#565655" stroke-linecap="round" stroke-linejoin="round" stroke-width="1.5" fill-rule="evenodd"/>
    <path id="Tracé_36" data-name="Tracé 36" d="M30.792,51.2l-6.815-.372" fill="none" stroke="#585a5b" stroke-linecap="round" stroke-linejoin="round" stroke-width="1.5" fill-rule="evenodd"/>
    <path id="Tracé_37" data-name="Tracé 37" d="M33.408,63.206h-.014l-1.831-.1-1.53-.085A1.077,1.077,0,0,0,28.9,64.038l-.185,3.375,2.606.142v-.014l1.832.1,4.435.256a4.443,4.443,0,0,0-4.18-4.691" fill="#fff" fill-rule="evenodd"/>
    <path id="Tracé_38" data-name="Tracé 38" d="M33.408,63.206h-.014l-1.831-.1-1.53-.085A1.077,1.077,0,0,0,28.9,64.038l-.185,3.375,2.606.142v-.014l1.832.1,4.435.256a4.443,4.443,0,0,0-4.18-4.691Z" fill="none" stroke="#585a5b" stroke-linecap="round" stroke-linejoin="round" stroke-width="1.5" fill-rule="evenodd"/>
    <path id="Tracé_39" data-name="Tracé 39" d="M40.008,47.166a2.391,2.391,0,1,1-2.257-2.518,2.391,2.391,0,0,1,2.257,2.518" fill="#f7be5d" fill-rule="evenodd"/>
    <path id="Tracé_40" data-name="Tracé 40" d="M40.008,47.166a2.391,2.391,0,1,1-2.257-2.518A2.391,2.391,0,0,1,40.008,47.166Z" fill="none" stroke="#575756" stroke-linecap="round" stroke-linejoin="round" stroke-width="1.5" fill-rule="evenodd"/>
    <path id="Tracé_41" data-name="Tracé 41" d="M22.971,37.385a13.536,13.536,0,0,0,12.74,12.268l.305-5.577a7.95,7.95,0,0,1-7.393-6.546" fill="#b7b7b7" fill-rule="evenodd"/>
    <path id="Tracé_42" data-name="Tracé 42" d="M22.971,37.385a13.536,13.536,0,0,0,12.74,12.268l.305-5.577a7.95,7.95,0,0,1-7.393-6.546" fill="none" stroke="#575756" stroke-linecap="round" stroke-linejoin="round" stroke-width="1.5" fill-rule="evenodd"/>
    <path id="Tracé_43" data-name="Tracé 43" d="M17.083,58.71a2.38,2.38,0,0,1-2.57,2.174l-11-.89a2.381,2.381,0,0,1-2.174-2.572L3.633,45.166a2.38,2.38,0,0,1,2.572-2.173l7.833.656a2.38,2.38,0,0,1,2.173,2.572l.872,12.49Z" fill="#ffd731" fill-rule="evenodd"/>
    <path id="Tracé_44" data-name="Tracé 44" d="M17.083,58.71a2.38,2.38,0,0,1-2.57,2.174l-11-.89a2.381,2.381,0,0,1-2.174-2.572L3.633,45.166a2.38,2.38,0,0,1,2.572-2.173l7.833.656a2.38,2.38,0,0,1,2.173,2.572l.872,12.49Z" fill="none" stroke="#565655" stroke-linecap="round" stroke-linejoin="round" stroke-width="1.5" fill-rule="evenodd"/>
    <path id="Tracé_45" data-name="Tracé 45" d="M31.614,35.795A3.639,3.639,0,0,0,32.7,36.2a3.973,3.973,0,0,0,.539.074,3.69,3.69,0,0,0,3.785-2.813l.64-1.253-7.285-2.48a2.367,2.367,0,0,1-.974-.644L24.33,33.064,31.614,35.8Zm2.02-10.025,5.476,1.864A7.067,7.067,0,0,0,37.7,22.585L33.634,25.77Z" fill="#f7c100" fill-rule="evenodd"/>
    <path id="Tracé_46" data-name="Tracé 46" d="M34.336,20.182A7.06,7.06,0,0,0,25.4,24.635l-3,7.7,1.935.725L29.4,29.086a2.391,2.391,0,0,1,2.52-3.9l1.711.582L37.7,22.585a7.017,7.017,0,0,0-3.36-2.4" fill="#ffd731" fill-rule="evenodd"/>
    <path id="Tracé_47" data-name="Tracé 47" d="M28.88,26.686a2.4,2.4,0,0,1,3.043-1.5l7.188,2.446a7.06,7.06,0,0,0-13.713-3l-3,7.705L31.614,35.8A3.639,3.639,0,0,0,32.7,36.2a3.82,3.82,0,0,0,.539.073,3.69,3.69,0,0,0,3.785-2.812l.64-1.253-7.285-2.48a2.4,2.4,0,0,1-1.5-3.044Z" fill="none" stroke="#585a5b" stroke-linecap="round" stroke-linejoin="round" stroke-width="1.5" fill-rule="evenodd"/>
    <path id="Tracé_48" data-name="Tracé 48" d="M39.11,27.635l-7.187-2.447a2.4,2.4,0,1,0-1.546,4.542l7.285,2.48,1.126-3.091a7.131,7.131,0,0,0,.323-1.484" fill="#499d87" fill-rule="evenodd"/>
    <path id="Tracé_49" data-name="Tracé 49" d="M39.11,27.635l-7.187-2.447a2.4,2.4,0,1,0-1.546,4.542l7.285,2.48,1.126-3.091a7.131,7.131,0,0,0,.323-1.484Z" fill="none" stroke="#585a5b" stroke-linecap="round" stroke-linejoin="round" stroke-width="1.5" fill-rule="evenodd"/>
    <path id="Tracé_50" data-name="Tracé 50" d="M24.021,30.75l2.722-6.277s2.282-4.71,7.356-3.376" fill="none" stroke="#fff" stroke-linecap="round" stroke-linejoin="round" stroke-width="1.692" fill-rule="evenodd"/>
    <path id="Tracé_51" data-name="Tracé 51" d="M2.429,57.093,4.719,45.9s.091-1.908,1.48-1.765,8.051.8,8.051.8m-2.9,26.153a8.582,8.582,0,0,1,8.868-6.883m24.742,7.135s-.346-5.651,5.083-7.23M46.56,52.15l.334,10.113" fill="none" stroke="#fff" stroke-linecap="round" stroke-linejoin="round" stroke-width="1.5" fill-rule="evenodd"/>
    <path id="Tracé_52" data-name="Tracé 52" d="M46.075,49.806l.146-2.945,4.01-.625" fill="none" stroke="#fff" stroke-linecap="round" stroke-linejoin="round" stroke-width="1.128" fill-rule="evenodd"/>
    <path id="Tracé_53" data-name="Tracé 53" d="M24.2,37.152s1.429,9.316,10,10.9M22.938,33.756a15.608,15.608,0,0,0-4.656,7.8" fill="none" stroke="#fff" stroke-linecap="round" stroke-linejoin="round" stroke-width="1.5" fill-rule="evenodd"/>
    <path id="Tracé_54" data-name="Tracé 54" d="M8.695,51.26a1.193,1.193,0,0,1,1.151-1.786,1.193,1.193,0,0,1,.777,1.978l-.075.086L9.525,52.715l-.774-1.358-.056-.1m1.266-2.94a2.357,2.357,0,0,0-2.575,2.111,2.33,2.33,0,0,0,.306,1.41l.053.093L8.8,53.776a.57.57,0,0,0,.449.29l.073.008.124.012.094.01a.575.575,0,0,0,.5-.2l1.39-1.6.072-.08a2.353,2.353,0,0,0-1.533-3.9M9.92,55.43v-.005a.655.655,0,0,0-1.3-.133v0a.643.643,0,0,0,.592.7.635.635,0,0,0,.712-.568" fill="#17c1ac" fill-rule="evenodd"/>
    <path id="Tracé_55" data-name="Tracé 55" d="M17.729,54.445a7.858,7.858,0,0,0,4.8,2.4c2.845.2,7.145.348,7.145.348l1.445.1-.748,4.74" fill="none" stroke="#fff" stroke-linecap="round" stroke-linejoin="round" stroke-width="1.5" fill-rule="evenodd"/>
  </g>
</svg>
