<svg id="steering-wheel_1_" data-name="steering-wheel (1)" xmlns="http://www.w3.org/2000/svg" width="464" height="464" viewBox="0 0 464 464">
  <path id="Tracé_1" data-name="Tracé 1" d="M353.512,232H281.184a84.291,84.291,0,0,1,13.961,36.512A71.619,71.619,0,0,1,320,264h39.594a127.344,127.344,0,0,0-6.082-32Zm0,0" fill="#00a082"/>
  <path id="Tracé_2" data-name="Tracé 2" d="M104.406,264H144a71.619,71.619,0,0,1,24.855,4.512A84.291,84.291,0,0,1,182.816,232H110.488a127.343,127.343,0,0,0-6.082,32Zm0,0" fill="#00a082"/>
  <path id="Tracé_3" data-name="Tracé 3" d="M424.281,248.121l14.6,58.414a19.134,19.134,0,0,1-.8,11.816l-11.82,29.543a19.259,19.259,0,0,1-36.328-1.621l-17.672-58.9A10.347,10.347,0,0,0,352,290.352v2.672a10.331,10.331,0,0,0,.527,3.273L384,390.7V432h65.754L463.9,375.406l.1-70.023-15.184-61.145a3.235,3.235,0,0,0-.586-1.184l-45.191-58.109A190.258,190.258,0,0,1,421.7,242.359a19.135,19.135,0,0,1,2.578,5.762Zm0,0" fill="#00a082"/>
  <path id="Tracé_4" data-name="Tracé 4" d="M232,400a126.514,126.514,0,0,0,16-1.078V336a71.978,71.978,0,0,1,31.816-59.711A68.659,68.659,0,0,0,260.594,232H203.406a68.619,68.619,0,0,0-19.223,44.289A71.978,71.978,0,0,1,216,336v62.961A129.182,129.182,0,0,0,232,400ZM208,272a24,24,0,1,1,24,24A24.031,24.031,0,0,1,208,272Zm0,0" fill="#00a082"/>
  <path id="Tracé_5" data-name="Tracé 5" d="M240,272a8,8,0,1,1-8-8A8,8,0,0,1,240,272Zm0,0" fill="#00a082"/>
  <path id="Tracé_6" data-name="Tracé 6" d="M232,416a143.222,143.222,0,0,1-121.367-66.6L98.3,386.375a175.823,175.823,0,0,0,267.383-.008l-12.32-36.961A144.672,144.672,0,0,1,232,416Zm0,0" fill="#00a082"/>
  <path id="Tracé_7" data-name="Tracé 7" d="M0,448H96v16H0Zm0,0" fill="#00a082"/>
  <path id="Tracé_8" data-name="Tracé 8" d="M368,448h96v16H368Zm0,0" fill="#00a082"/>
  <path id="Tracé_9" data-name="Tracé 9" d="M63.953,324.32l12.461-41.543a26.173,26.173,0,0,1,11.8-15.059C90.5,190.312,154.039,128,232,128s141.5,62.313,143.785,139.719a26.173,26.173,0,0,1,11.8,15.059l12.461,41.543A175.133,175.133,0,0,0,408,272c0-97.047-78.953-176-176-176S56,174.953,56,272a175.133,175.133,0,0,0,7.953,52.32Zm0,0" fill="#00a082"/>
  <path id="Tracé_10" data-name="Tracé 10" d="M80,432V390.7L111.473,296.3a10.331,10.331,0,0,0,.527-3.273v-2.672a10.347,10.347,0,0,0-20.258-2.977l-17.672,58.9a19.259,19.259,0,0,1-36.328,1.621L25.93,318.351a19.1,19.1,0,0,1-.809-11.824l14.6-58.4a19.135,19.135,0,0,1,2.578-5.777,190.364,190.364,0,0,1,18.672-57.43L15.777,243.039a3.189,3.189,0,0,0-.6,1.227L.1,304.594,0,374.617,14.258,432Zm0,0" fill="#00a082"/>
  <path id="Tracé_11" data-name="Tracé 11" d="M232,16a70.382,70.382,0,0,1,50.32,21.055l11.367-11.246a86.617,86.617,0,0,0-123.367,0l11.367,11.246A70.35,70.35,0,0,1,232,16Zm0,0" fill="#00a082"/>
  <path id="Tracé_12" data-name="Tracé 12" d="M271.289,48.441a55.164,55.164,0,0,0-78.578,0l11.367,11.246a39.2,39.2,0,0,1,55.844,0Zm0,0" fill="#00a082"/>
  <path id="Tracé_13" data-name="Tracé 13" d="M215.113,71.063l11.375,11.25a7.905,7.905,0,0,1,11.023,0l11.375-11.25C239.879,61.953,224.121,61.953,215.113,71.063Zm0,0" fill="#00a082"/>
</svg>
