<svg id="moto_dude_yay_5_" data-name="moto_dude_yay (5)" xmlns="http://www.w3.org/2000/svg" width="511.819" height="206.125" viewBox="0 0 511.819 206.125">
  <path id="Tracé_1" data-name="Tracé 1" d="M12.751,73.33A6.623,6.623,0,1,0,19,66.355a6.623,6.623,0,0,0-6.252,6.975" transform="translate(292.42 37)" fill="#727272" fill-rule="evenodd"/>
  <path id="Tracé_2" data-name="Tracé 2" stroke="#565655" d="M12.751,73.33A6.623,6.623,0,1,0,19,66.355a6.623,6.623,0,0,0-6.252,6.975Z" fill="none" transform="translate(292.42 37)" stroke-linecap="round" stroke-linejoin="round" stroke-width="1.5" fill-rule="evenodd"/>
  <path id="Tracé_3" data-name="Tracé 3" d="M38.789,44.755a2.392,2.392,0,1,0,2.257-2.52,2.391,2.391,0,0,0-2.257,2.52" transform="translate(248.795 37)" fill="#f7be5d" fill-rule="evenodd"/>
  <path id="Tracé_4" data-name="Tracé 4" stroke="#575756" d="M38.789,44.755a2.392,2.392,0,1,0,2.257-2.52,2.391,2.391,0,0,0-2.257,2.52Z" fill="none" transform="translate(248.795 37)" stroke-linecap="round" stroke-linejoin="round" stroke-width="1.5" fill-rule="evenodd"/>
  <path id="Tracé_5" data-name="Tracé 5" d="M39.7,31.935c.025.23.043.464.056.7A13.533,13.533,0,0,1,26.976,46.884l-.3-5.578a7.947,7.947,0,0,0,7.5-8.369c-.013-.236-.04-.467-.073-.7" transform="translate(264.706 37)" fill="#b7b7b7" fill-rule="evenodd"/>
  <path id="Tracé_6" data-name="Tracé 6" stroke="#575756" d="M39.7,31.935c.025.23.043.464.056.7A13.533,13.533,0,0,1,26.976,46.884l-.3-5.578a7.947,7.947,0,0,0,7.5-8.369c-.013-.236-.04-.467-.073-.7" fill="none" transform="translate(264.706 37)" stroke-linecap="round" stroke-linejoin="round" stroke-width="1.5" fill-rule="evenodd"/>
  <path id="Tracé_7" data-name="Tracé 7" d="M19.365,48.557A24.754,24.754,0,0,0,15.874,36.7c1.516-3.146,3.714-5.2,6.315-5.343,5.352-.292,10.107,7.079,10.62,16.464" transform="translate(282.466 37)" fill="#b7b7b7" fill-rule="evenodd"/>
  <path id="Tracé_8" data-name="Tracé 8" stroke="#575756" d="M19.365,48.557A24.754,24.754,0,0,0,15.874,36.7c1.516-3.146,3.714-5.2,6.315-5.343,5.352-.292,10.107,7.079,10.62,16.464" fill="none" transform="translate(282.466 37)" stroke-linecap="round" stroke-linejoin="round" stroke-width="1.5" fill-rule="evenodd"/>
  <path id="Tracé_9" data-name="Tracé 9" d="M45.979,49.33a1.566,1.566,0,0,0,1.447-1.64,1.559,1.559,0,0,0-1.641-1.472l-4.48.245a1.57,1.57,0,0,0-1.47,1.641,1.559,1.559,0,0,0,1.641,1.472l4.5-.247" transform="translate(243.888 37)" fill="#e85666" fill-rule="evenodd"/>
  <path id="Tracé_10" data-name="Tracé 10" d="M41.255,46.07l.03,0,4.478-.244a1.954,1.954,0,0,1,2.057,1.844,1.962,1.962,0,0,1-1.814,2.055l-.03,0L41.5,49.97a1.954,1.954,0,0,1-.243-3.9m.055.788a1.164,1.164,0,1,0,.145,2.323l4.478-.244.018,0a1.164,1.164,0,0,0-.145-2.323l-4.478.245H41.31" transform="translate(243.888 37)" fill="#575756" fill-rule="evenodd"/>
  <path id="Tracé_11" data-name="Tracé 11" d="M11.151,68.34a.4.4,0,0,0,.128-.03l2.083-.89a.395.395,0,0,0,.2-.54l-1.83-3.647a.4.4,0,0,0-.495-.19l-2.222.862a.4.4,0,0,0-.2.555l1.969,3.674a.4.4,0,0,0,.376.207" transform="translate(308.789 37)" fill="#ffd731" fill-rule="evenodd"/>
  <path id="Tracé_12" data-name="Tracé 12" d="M11.321,62.622a.79.79,0,0,1,.76.434l1.83,3.646a.787.787,0,0,1-.4,1.08l-2.082.891a.79.79,0,0,1-1.007-.353L8.458,64.647a.79.79,0,0,1,.41-1.11l2.222-.863a.79.79,0,0,1,.231-.052m.055.788-2.222.863,1.969,3.674,2.082-.89L11.376,63.41" transform="translate(308.789 37)" fill="#565655" fill-rule="evenodd"/>
  <path id="Tracé_13" data-name="Tracé 13" d="M48.53,48.717A2.719,2.719,0,1,0,51.1,45.854a2.719,2.719,0,0,0-2.567,2.863" transform="translate(228.659 37)" fill="#fdde66" fill-rule="evenodd"/>
  <path id="Tracé_14" data-name="Tracé 14" stroke="#585a5b" d="M48.53,48.717A2.719,2.719,0,1,0,51.1,45.854,2.719,2.719,0,0,0,48.53,48.717Z" fill="none" transform="translate(228.659 37)" stroke-linecap="round" stroke-linejoin="round" stroke-width="1.5" fill-rule="evenodd"/>
  <path id="Tracé_15" data-name="Tracé 15" d="M24.692,60.391l-14.018.765.488,8.927,18.1-.988Z" transform="translate(291.213 37)" fill="#e85666" fill-rule="evenodd"/>
  <path id="Tracé_16" data-name="Tracé 16" stroke="#575756" d="M24.692,60.391l-14.018.765.488,8.927,18.1-.988Z" fill="none" transform="translate(291.213 37)" stroke-linecap="round" stroke-linejoin="round" stroke-width="1.5" fill-rule="evenodd"/>
  <path id="Tracé_17" data-name="Tracé 17" d="M22.923,64.185l2.269-12.822,4.746-2.209-.3,14.08,8.18,4.612,11.358-.62a2.994,2.994,0,1,1,.327,5.98l-13.212.722a2.994,2.994,0,0,1-2.594-4.739l-5.984-4.566-4.788-.438Z" transform="translate(255.894 37)" fill="#e85666" fill-rule="evenodd"/>
  <path id="Tracé_18" data-name="Tracé 18" stroke="#575756" d="M22.923,64.185l2.269-12.822,4.746-2.209-.3,14.08,8.18,4.612,11.358-.62a2.994,2.994,0,1,1,.327,5.98l-13.212.722a2.994,2.994,0,0,1-2.594-4.739l-5.984-4.566-4.788-.438Z" fill="none" transform="translate(255.894 37)" stroke-linecap="round" stroke-linejoin="round" stroke-width="1.5" fill-rule="evenodd"/>
  <path id="Tracé_19" data-name="Tracé 19" d="M45.87,75.138a6.624,6.624,0,1,0,6.252-6.978,6.623,6.623,0,0,0-6.252,6.978" transform="translate(226.18 37)" fill="#727272" fill-rule="evenodd"/>
  <path id="Tracé_20" data-name="Tracé 20" stroke="#565655" d="M45.87,75.138a6.624,6.624,0,1,0,6.252-6.978,6.623,6.623,0,0,0-6.252,6.978Z" fill="none" transform="translate(226.18 37)" stroke-linecap="round" stroke-linejoin="round" stroke-width="1.5" fill-rule="evenodd"/>
  <path id="Tracé_21" data-name="Tracé 21" d="M49.471,74.941a3.018,3.018,0,1,0,2.848-3.178,3.017,3.017,0,0,0-2.848,3.178" transform="translate(226.182 37)" fill="#fff" fill-rule="evenodd"/>
  <path id="Tracé_22" data-name="Tracé 22" stroke="#585a5b" d="M49.471,74.941a3.018,3.018,0,1,0,2.848-3.178,3.017,3.017,0,0,0-2.848,3.178Z" fill="none" transform="translate(226.182 37)" stroke-linecap="round" stroke-linejoin="round" stroke-width="1.5" fill-rule="evenodd"/>
  <path id="Tracé_23" data-name="Tracé 23" d="M16.353,73.133A3.017,3.017,0,1,0,19.2,69.956a3.017,3.017,0,0,0-2.849,3.177" transform="translate(292.418 37)" fill="#fff" fill-rule="evenodd"/>
  <path id="Tracé_24" data-name="Tracé 24" stroke="#585a5b" d="M16.353,73.133A3.017,3.017,0,1,0,19.2,69.956a3.017,3.017,0,0,0-2.849,3.177Z" fill="none" transform="translate(292.418 37)" stroke-linecap="round" stroke-linejoin="round" stroke-width="1.5" fill-rule="evenodd"/>
  <path id="Tracé_25" data-name="Tracé 25" d="M53.321,63.262a7.65,7.65,0,0,1,4.962,9.616L43.705,68.223a7.652,7.652,0,0,1,9.616-4.96" transform="translate(228.796 37)" fill="#e85666" fill-rule="evenodd"/>
  <path id="Tracé_26" data-name="Tracé 26" stroke="#575756" d="M53.321,63.262a7.65,7.65,0,0,1,4.962,9.616L43.705,68.223a7.652,7.652,0,0,1,9.616-4.96Z" fill="none" transform="translate(228.796 37)" stroke-linecap="round" stroke-linejoin="round" stroke-width="1.5" fill-rule="evenodd"/>
  <path id="Tracé_27" data-name="Tracé 27" d="M19.352,63.07a9.847,9.847,0,0,1,10.24,9.44l-19.68.8a9.849,9.849,0,0,1,9.44-10.24" transform="translate(291.653 37)" fill="#e85666" fill-rule="evenodd"/>
  <path id="Tracé_28" data-name="Tracé 28" stroke="#575756" d="M19.352,63.07a9.847,9.847,0,0,1,10.24,9.44l-19.68.8a9.849,9.849,0,0,1,9.44-10.24Z" fill="none" transform="translate(291.653 37)" stroke-linecap="round" stroke-linejoin="round" stroke-width="1.5" fill-rule="evenodd"/>
  <path id="Tracé_29" data-name="Tracé 29" stroke="#585a5b" d="M21.26,69.954l-5.684.31" fill="none" transform="translate(294.313 37)" stroke-linecap="round" stroke-linejoin="round" stroke-width="1.5" fill-rule="evenodd"/>
  <path id="Tracé_30" data-name="Tracé 30" d="M13.247,59.268a2.729,2.729,0,0,0,2.874,2.576l15.15-.827a2.729,2.729,0,1,0-.3-5.449L15.823,56.4a2.728,2.728,0,0,0-2.576,2.873" transform="translate(284.054 37)" fill="#f2919f" fill-rule="evenodd"/>
  <path id="Tracé_31" data-name="Tracé 31" stroke="#575756" d="M13.247,59.268a2.729,2.729,0,0,0,2.874,2.576l15.15-.827a2.729,2.729,0,1,0-.3-5.449L15.823,56.4a2.728,2.728,0,0,0-2.576,2.873Z" fill="none" transform="translate(284.054 37)" stroke-linecap="round" stroke-linejoin="round" stroke-width="1.5" fill-rule="evenodd"/>
  <path id="Tracé_32" data-name="Tracé 32" d="M45.1,52.158l6.344-1.516L51.176,45.8l-6.471-.816Z" transform="translate(235.004 37)" fill="#e85666" fill-rule="evenodd"/>
  <path id="Tracé_33" data-name="Tracé 33" stroke="#575756" d="M45.1,52.158l6.344-1.516L51.176,45.8l-6.471-.816Z" fill="none" transform="translate(235.004 37)" stroke-linecap="round" stroke-linejoin="round" stroke-width="1.5" fill-rule="evenodd"/>
  <path id="Tracé_34" data-name="Tracé 34" d="M15.279,55c-.558-3.4,3.217-3.7,3.565-3.655l4.036-.22a7.094,7.094,0,0,1,.225-2.2l13.257-1.29a7.1,7.1,0,0,1-6,10.19c-.353.02-1.54.084-1.8.1l-6.03.328,1.006,6.829-6.279,1.382L15.279,55" transform="translate(278.852 37)" fill="#7dafd3" fill-rule="evenodd"/>
  <path id="Tracé_35" data-name="Tracé 35" stroke="#565655" d="M15.279,55c-.558-3.4,3.217-3.7,3.565-3.655l4.036-.22a7.094,7.094,0,0,1,.225-2.2l13.257-1.29a7.1,7.1,0,0,1-6,10.19c-.353.02-1.54.084-1.8.1l-6.03.328,1.006,6.829-6.279,1.382L15.279,55" fill="none" transform="translate(278.852 37)" stroke-linecap="round" stroke-linejoin="round" stroke-width="1.5" fill-rule="evenodd"/>
  <path id="Tracé_36" data-name="Tracé 36" stroke="#585a5b" d="M23.977,51.2l6.815-.372" fill="none" transform="translate(276.38 37)" stroke-linecap="round" stroke-linejoin="round" stroke-width="1.5" fill-rule="evenodd"/>
  <path id="Tracé_37" data-name="Tracé 37" d="M32.9,63.206h.014l1.831-.1,1.53-.085a1.077,1.077,0,0,1,1.134,1.017l.185,3.375-2.606.142v-.014l-1.832.1-4.435.256a4.443,4.443,0,0,1,4.18-4.691" transform="translate(264.841 37)" fill="#fff" fill-rule="evenodd"/>
  <path id="Tracé_38" data-name="Tracé 38" stroke="#585a5b" d="M32.9,63.206h.014l1.831-.1,1.53-.085a1.077,1.077,0,0,1,1.134,1.017l.185,3.375-2.606.142v-.014l-1.832.1-4.435.256a4.443,4.443,0,0,1,4.18-4.691Z" fill="none" transform="translate(264.841 37)" stroke-linecap="round" stroke-linejoin="round" stroke-width="1.5" fill-rule="evenodd"/>
  <path id="Tracé_39" data-name="Tracé 39" d="M35.233,47.166a2.391,2.391,0,1,0,2.257-2.518,2.391,2.391,0,0,0-2.257,2.518" transform="translate(255.908 37)" fill="#f7be5d" fill-rule="evenodd"/>
  <path id="Tracé_40" data-name="Tracé 40" stroke="#575756" d="M35.233,47.166a2.391,2.391,0,1,0,2.257-2.518A2.391,2.391,0,0,0,35.233,47.166Z" fill="none" transform="translate(255.908 37)" stroke-linecap="round" stroke-linejoin="round" stroke-width="1.5" fill-rule="evenodd"/>
  <path id="Tracé_41" data-name="Tracé 41" d="M36.016,37.385a13.536,13.536,0,0,1-12.74,12.268l-.305-5.577a7.95,7.95,0,0,0,7.393-6.546" transform="translate(272.162 37)" fill="#b7b7b7" fill-rule="evenodd"/>
  <path id="Tracé_42" data-name="Tracé 42" stroke="#575756" d="M36.016,37.385a13.536,13.536,0,0,1-12.74,12.268l-.305-5.577a7.95,7.95,0,0,0,7.393-6.546" fill="none" transform="translate(272.162 37)" stroke-linecap="round" stroke-linejoin="round" stroke-width="1.5" fill-rule="evenodd"/>
  <path id="Tracé_43" data-name="Tracé 43" d="M1.331,58.71A2.38,2.38,0,0,0,3.9,60.884l11-.89a2.381,2.381,0,0,0,2.174-2.572L14.781,45.166a2.38,2.38,0,0,0-2.572-2.173l-7.833.656A2.38,2.38,0,0,0,2.2,46.221l-.872,12.49Z" transform="translate(312.736 37)" fill="#ffd731" fill-rule="evenodd"/>
  <path id="Tracé_44" data-name="Tracé 44" stroke="#565655" d="M1.331,58.71A2.38,2.38,0,0,0,3.9,60.884l11-.89a2.381,2.381,0,0,0,2.174-2.572L14.781,45.166a2.38,2.38,0,0,0-2.572-2.173l-7.833.656A2.38,2.38,0,0,0,2.2,46.221l-.872,12.49Z" fill="none" transform="translate(312.736 37)" stroke-linecap="round" stroke-linejoin="round" stroke-width="1.5" fill-rule="evenodd"/>
  <path id="Tracé_45" data-name="Tracé 45" d="M31.867,35.8a3.639,3.639,0,0,1-1.084.407,3.973,3.973,0,0,1-.539.074,3.69,3.69,0,0,1-3.785-2.813l-.64-1.253L33.1,29.73a2.367,2.367,0,0,0,.974-.644l5.073,3.978L31.867,35.8ZM29.847,25.77l-5.476,1.864a7.067,7.067,0,0,1,1.413-5.049l4.063,3.185Z" transform="translate(267.669 37)" fill="#f7c100" fill-rule="evenodd"/>
  <path id="Tracé_46" data-name="Tracé 46" d="M25.756,20.182a7.06,7.06,0,0,1,8.938,4.453l3,7.7-1.935.725-5.073-3.978a2.391,2.391,0,0,0-2.52-3.9l-1.711.582L22.4,22.585a7.017,7.017,0,0,1,3.36-2.4" transform="translate(271.057 37)" fill="#ffd731" fill-rule="evenodd"/>
  <path id="Tracé_47" data-name="Tracé 47" stroke="#585a5b" d="M32.667,26.686a2.4,2.4,0,0,0-3.043-1.5l-7.188,2.446a7.06,7.06,0,0,1,13.713-3l3,7.705L29.933,35.8a3.639,3.639,0,0,1-1.084.407,3.82,3.82,0,0,1-.539.073,3.69,3.69,0,0,1-3.785-2.812l-.64-1.253,7.285-2.48a2.4,2.4,0,0,0,1.5-3.044Z" fill="none" transform="translate(269.602 37)" stroke-linecap="round" stroke-linejoin="round" stroke-width="1.5" fill-rule="evenodd"/>
  <path id="Tracé_48" data-name="Tracé 48" d="M28.751,27.635l7.187-2.447a2.4,2.4,0,1,1,1.546,4.542L30.2,32.21l-1.126-3.091a7.131,7.131,0,0,1-.323-1.484" transform="translate(263.288 37)" fill="#499d87" fill-rule="evenodd"/>
  <path id="Tracé_49" data-name="Tracé 49" stroke="#585a5b" d="M28.751,27.635l7.187-2.447a2.4,2.4,0,1,1,1.546,4.542L30.2,32.21l-1.126-3.091a7.131,7.131,0,0,1-.323-1.484Z" fill="none" transform="translate(263.288 37)" stroke-linecap="round" stroke-linejoin="round" stroke-width="1.5" fill-rule="evenodd"/>
  <path id="Tracé_50" data-name="Tracé 50" stroke="#fff" d="M34.1,30.75l-2.722-6.277s-2.282-4.71-7.356-3.376" fill="none" transform="translate(273.029 37)" stroke-linecap="round" stroke-linejoin="round" stroke-width="1.692" fill-rule="evenodd"/>
  <path id="Tracé_51" data-name="Tracé 51" stroke="#fff" d="M50.044,57.093,47.754,45.9s-.091-1.908-1.48-1.765-8.051.8-8.051.8m2.9,26.153a8.582,8.582,0,0,0-8.868-6.883M7.512,71.344s.346-5.651-5.083-7.23M5.913,52.15,5.579,62.263" fill="none" transform="translate(278.676 37)" stroke-linecap="round" stroke-linejoin="round" stroke-width="1.5" fill-rule="evenodd"/>
  <path id="Tracé_52" data-name="Tracé 52" stroke="#fff" d="M50.231,49.806l-.146-2.945-4.01-.625" fill="none" transform="translate(234.843 37)" stroke-linecap="round" stroke-linejoin="round" stroke-width="1.128" fill-rule="evenodd"/>
  <path id="Tracé_53" data-name="Tracé 53" stroke="#fff" d="M28.285,37.152s-1.429,9.316-10,10.9M29.549,33.756a15.608,15.608,0,0,1,4.656,7.8" fill="none" transform="translate(278.662 37)" stroke-linecap="round" stroke-linejoin="round" stroke-width="1.5" fill-rule="evenodd"/>
  <path id="Tracé_54" data-name="Tracé 54" d="M10.761,51.26A1.193,1.193,0,0,0,9.61,49.474a1.193,1.193,0,0,0-.777,1.978l.075.086,1.023,1.177.774-1.358.056-.1M9.5,48.32a2.357,2.357,0,0,1,2.575,2.111,2.33,2.33,0,0,1-.306,1.41l-.053.093-1.05,1.842a.57.57,0,0,1-.449.29l-.073.008-.124.012-.094.01a.575.575,0,0,1-.5-.2l-1.39-1.6-.072-.08a2.353,2.353,0,0,1,1.533-3.9m.041,7.109v-.005a.655.655,0,0,1,1.3-.133v0a.643.643,0,0,1-.592.7.635.635,0,0,1-.712-.568" transform="translate(311.693 37)" fill="#17c1ac" fill-rule="evenodd"/>
  <path id="Tracé_55" data-name="Tracé 55" stroke="#fff" d="M31.121,54.445a7.858,7.858,0,0,1-4.8,2.4c-2.845.2-7.145.348-7.145.348l-1.445.1.748,4.74" fill="none" transform="translate(282.299 37)" stroke-linecap="round" stroke-linejoin="round" stroke-width="1.5" fill-rule="evenodd"/>
  <g id="car" transform="translate(0 0)">
    <path id="Tracé_56" data-name="Tracé 56" d="M0,272.06v26.48s8.448,14.88,14.032,17.2h101.28l7.44-2.32,3.264,7.44H378.768l.672-.24,11.408-3.952L476.8,327.82s2.72-.128,6.624-.64c10.944-1.424,31.152-5.856,26.368-18.88,0,0,4.56-24.688,0-39.024,0,0-1.392-19.984-18.576-26.96-17.2-6.96-67.84-20.448-95.712-24.608,0,0-24.624-7.44-35.312-17.2A307.938,307.938,0,0,0,306.3,169.436a164.45,164.45,0,0,0-50.656-12.8c-33.744-3.168-107.088-8.048-153.776,3.44A161.941,161.941,0,0,0,22.08,207.228a44.312,44.312,0,0,0-11.744,30.16v10.048L7.088,259.052C7.072,259.052,0,264.156,0,272.06Z" transform="translate(0 -152.847)" fill="#ca2234"/>
    <path id="Tracé_57" data-name="Tracé 57" d="M27.179,315.9c0,1.584.064,3.168.208,4.72l11.408-3.952,85.952,11.152s2.72-.128,6.624-.64A52.706,52.706,0,1,0,27.179,315.9Z" transform="translate(352.053 -152.847)" fill="#2e3235"/>
    <ellipse id="Ellipse_1" data-name="Ellipse 1" cx="43.072" cy="43.072" rx="43.072" ry="43.072" transform="translate(388.864 119.981)" fill="#3e4347"/>
    <path id="Tracé_58" data-name="Tracé 58" d="M493.451,315.708l-1.008-2.3-7.44,2.32H388.059a52.7,52.7,0,0,1,105.392-.016Z" transform="translate(-369.691 -152.847)" fill="#2e3235"/>
    <g id="Groupe_1" data-name="Groupe 1" transform="translate(28 13.213)">
      <ellipse id="Ellipse_2" data-name="Ellipse 2" cx="43.072" cy="43.072" rx="43.072" ry="43.072" transform="translate(0 106.768)" fill="#3e4347"/>
      <path id="Tracé_59" data-name="Tracé 59" d="M151.771,166.652c8.944.3,14.608.608,14.72.624l.32.016h.32c.9-.032,1.792-.032,2.688-.032,39.056,0,77.968,23.2,97.7,37.024A57.106,57.106,0,0,1,287.5,229.228l-124.464-9.936Z" transform="translate(44.549 -166.06)" fill="#3e4347"/>
      <path id="Tracé_60" data-name="Tracé 60" d="M325.247,174.444c12.368-5.408,41.824-8.384,83.072-8.384,4.832,0,9.52.048,13.936.112l4.48,51.024h0l-123.344-9.84c-.4-2.3-.736-4.5-.976-6.5l-.016-.16-.032-.16C301.071,192.988,315.119,180.62,325.247,174.444Z" transform="translate(-245.199 -166.06)" fill="#3e4347"/>
    </g>
    <g id="Groupe_2" data-name="Groupe 2" transform="translate(9.984 71.266)">
      <path id="Tracé_61" data-name="Tracé 61" d="M54.19,261.468S37.054,241.516,17.854,243.02c-4.672.368-18.64,6.624,3.2,18.448,6.832,3.7,20.272,5.872,30.5,6.032C59.838,267.612,54.19,261.468,54.19,261.468Z" transform="translate(436.626 -224.113)" fill="#ffd83b"/>
      <path id="Tracé_62" data-name="Tracé 62" d="M478.643,247.436V237.388a44.672,44.672,0,0,1,2-12.624c6.912-.864,15.568-1.3,18.384,1.52,3.744,3.744,3.744,17.44,0,21.184-3.136,3.136-13.6,2.256-20.72,1.216Z" transform="translate(-478.307 -224.113)" fill="#ffd83b"/>
    </g>
    <ellipse id="Ellipse_3" data-name="Ellipse 3" cx="28.752" cy="28.752" rx="28.752" ry="28.752" transform="translate(403.184 134.301)" fill="#cbd6e0"/>
    <ellipse id="Ellipse_4" data-name="Ellipse 4" cx="23.456" cy="23.456" rx="23.456" ry="23.456" transform="translate(408.48 139.597)" fill="#939799"/>
    <g id="Groupe_3" data-name="Groupe 3" transform="translate(42.32 134.301)">
      <ellipse id="Ellipse_5" data-name="Ellipse 5" cx="16.88" cy="16.88" rx="16.88" ry="16.88" transform="translate(372.736 11.872)" fill="#cbd6e0"/>
      <ellipse id="Ellipse_6" data-name="Ellipse 6" cx="28.752" cy="28.752" rx="28.752" ry="28.752" transform="translate(0)" fill="#cbd6e0"/>
    </g>
    <ellipse id="Ellipse_7" data-name="Ellipse 7" cx="23.456" cy="23.456" rx="23.456" ry="23.456" transform="translate(47.616 139.597)" fill="#939799"/>
    <ellipse id="Ellipse_8" data-name="Ellipse 8" cx="16.88" cy="16.88" rx="16.88" ry="16.88" transform="translate(54.192 146.173)" fill="#cbd6e0"/>
    <g id="Groupe_4" data-name="Groupe 4" transform="translate(126.928 13.501)">
      <path id="Tracé_63" data-name="Tracé 63" d="M240.011,226.892l-26.192-2.1-32.944-53.568a178.033,178.033,0,0,1,32.32,12.064Z" transform="translate(-35.995 -166.348)" fill="#eac429"/>
      <path id="Tracé_64" data-name="Tracé 64" d="M263.995,224.06l-13.664-1.088L216.3,167.628a116.973,116.973,0,0,1,13.968,1.584Z" transform="translate(-95.403 -166.348)" fill="#eac429"/>
      <path id="Tracé_65" data-name="Tracé 65" d="M364.507,216.636l-26.192-2.1L309.4,167.516c7.3-.544,15.392-.944,24.192-1.168Z" transform="translate(-289.019 -166.348)" fill="#eac429"/>
      <path id="Tracé_66" data-name="Tracé 66" d="M384.891,213.8l-13.664-1.088-26.416-42.96c3.68-.576,7.632-1.1,12.048-1.536Z" transform="translate(-344.811 -166.348)" fill="#eac429"/>
    </g>
  </g>
</svg>
